<svg preserveAspectRatio="none" width="100%" height="100%" overflow="visible" style="display: block;" viewBox="0 0 146.04 112.22" fill="none" xmlns="http://www.w3.org/2000/svg">
<g id="Group 36881">
<path id="Vector" d="M32.725 0.0194294H4.67501C3.56258 -0.0866364 2.45255 0.244419 1.57995 0.942496C0.707358 1.64057 0.140712 2.65086 0 3.75943V112.22H37.4001V3.75943C37.2593 2.65086 36.6927 1.64057 35.8201 0.942496C34.9475 0.244419 33.8375 -0.0866364 32.725 0.0194294Z" fill="var(--fill-0, #2972EB)" fill-opacity="0.2"/>
<path id="Vector_2" d="M68.3076 0.019426H48.6726C47.8939 -0.0866214 47.1168 0.244377 46.506 0.942333C45.8952 1.64029 45.4986 2.6504 45.4001 3.75878V112.2H71.5801V3.75878C71.4816 2.6504 71.0849 1.64029 70.4741 0.942333C69.8633 0.244377 69.0863 -0.0866214 68.3076 0.019426Z" fill="var(--fill-0, #125AD1)" fill-opacity="0.2"/>
<path id="Vector_3" d="M146.04 105.076L120.084 36.6341C119.91 36.1748 119.647 35.7544 119.31 35.3969C118.973 35.0393 118.569 34.7516 118.121 34.5501C117.673 34.3487 117.19 34.2375 116.699 34.2229C116.208 34.2082 115.719 34.2905 115.26 34.4649L102.02 39.6261V22.4595C102.02 21.4676 101.626 20.5163 100.925 19.8149C100.223 19.1135 99.272 18.7195 98.2801 18.7195H79.5801V112.22H102.02V43.7401L127.938 112.22L146.04 105.076Z" fill="var(--fill-0, #2365D2)" fill-opacity="0.2"/>
</g>
</svg>
